<?xml version="1.0" encoding="UTF-8"?>
<svg version="1.1" xmlns="http://www.w3.org/2000/svg" width="772" height="772">
<path d="M0 0 C254.76 0 509.52 0 772 0 C772 254.76 772 509.52 772 772 C517.24 772 262.48 772 0 772 C0 517.24 0 262.48 0 0 Z " fill="#0A0B0B" transform="translate(0,0)"/>
<path d="M0 0 C2.80078125 1.5 2.80078125 1.5 5 4 C5.4917208 6.90900053 5.20009791 9.64400738 4.875 12.5625 C4.813125 13.33013672 4.75125 14.09777344 4.6875 14.88867188 C4.40873428 18.08611468 4.01754927 20.9473522 3 24 C1.76095606 36.51623067 0.76697692 48.92373371 8.6640625 59.30078125 C9.43492187 60.19152344 10.20578125 61.08226562 11 62 C11.70898438 62.92167969 12.41796875 63.84335937 13.1484375 64.79296875 C18.68005557 71.8722417 24.8375942 78.4688203 31 85 C31.6496875 85.72960937 32.299375 86.45921875 32.96875 87.2109375 C41.96003546 95.13018508 57.80943827 94.47738908 69 94 C71.00049382 93.66964322 73.00049153 93.33626921 75 93 C77.20570281 92.86378082 79.41531303 92.78104947 81.625 92.75 C82.73101563 92.72421875 83.83703125 92.6984375 84.9765625 92.671875 C88.35723644 93.03876985 89.69706367 93.5178257 92 96 C93.27633817 99.79542666 92.91687014 103.14072516 92 107 C89.52736412 111.41907033 86.5878834 115.29970868 83.41552734 119.23583984 C82.05348483 120.93334229 80.73373421 122.65514074 79.42578125 124.39453125 C72.90278229 133.05188916 66.04693424 141.43553331 59.01416016 149.68237305 C53.3482581 156.33109502 47.89436046 163.1172675 42.5390625 170.01806641 C40.8317285 172.21669227 39.11919485 174.4112118 37.40625 176.60546875 C36.1664979 178.1951809 34.92691268 179.78502321 33.6875 181.375 C33.11281982 182.11194092 32.53813965 182.84888184 31.94604492 183.6081543 C28.24451912 188.36664572 24.60071097 193.16478286 21 198 C22.54581503 201.302191 24.0032937 203.04222653 26.875 205.3125 C31.53997516 209.28196978 34.55906592 212.85047086 35.4375 219.125 C34.91268825 222.57376292 34.24863528 224.31614499 32 227 C22.24710462 232.97116044 9.52914887 228.07709016 -1 226 C-1.24878906 226.55171875 -1.49757813 227.1034375 -1.75390625 227.671875 C-3.23118822 230.43193787 -5.03230441 232.76650481 -6.9375 235.25 C-9.39771982 238.57018855 -11.4321924 241.51352543 -12.75 245.4375 C-14.02473048 249.07048187 -15.20244776 250.48220298 -18 253 C-18.33 253.99 -18.66 254.98 -19 256 C-18.39671875 256.24105469 -17.7934375 256.48210937 -17.171875 256.73046875 C-12.97571897 259.1832578 -11.47933382 263.53276268 -10 268 C-8.86825281 276.00928778 -9.59841469 283.12252296 -14 290 C-18.91532669 296.03882994 -28.17205952 302.97629838 -35.98754883 304.34912109 C-45.41453175 305.18226806 -52.97259222 304.74853995 -60.8359375 299.01953125 C-63 297 -63 297 -64.8515625 294.19921875 C-65.56054688 293.47347656 -66.26953125 292.74773437 -67 292 C-69.31 292.33 -71.62 292.66 -74 293 C-80.27 293 -86.54 293 -93 293 C-92.01 312.305 -92.01 312.305 -91 332 C-85.555 333.485 -85.555 333.485 -80 335 C-76 339 -76 339 -75.50390625 341.4375 C-75.52324219 342.283125 -75.54257812 343.12875 -75.5625 344 C-75.56443359 345.2684375 -75.56443359 345.2684375 -75.56640625 346.5625 C-76.10848867 349.60988224 -76.6822675 350.92300957 -79 353 C-87.60382705 354.40302216 -95.45571624 353.34632147 -103 349 C-104.03382813 348.649375 -105.06765625 348.29875 -106.1328125 347.9375 C-109.33527794 345.77343616 -109.48087406 345.40911301 -110.20703125 341.83203125 C-110.43645432 340.1624148 -110.63733876 338.48867797 -110.8125 336.8125 C-110.92013672 335.98685547 -111.02777344 335.16121094 -111.13867188 334.31054688 C-111.35101817 332.65737232 -111.54974749 331.00239201 -111.73486328 329.34594727 C-111.96911909 327.2732363 -112.25236804 325.20618976 -112.54296875 323.140625 C-113.34982754 316.71551915 -113.39113996 310.22144451 -113.60546875 303.75585938 C-113.79985699 298.43029188 -114.10540913 293.25572136 -115 288 C-115.6084375 287.89945313 -116.216875 287.79890625 -116.84375 287.6953125 C-125.78311859 285.77597748 -132.59081363 281.26935076 -140.08251953 276.27246094 C-141.81988279 275.11952774 -143.57876825 273.99919019 -145.33984375 272.8828125 C-152.18755666 268.49393087 -158.08556185 263.56335278 -164 258 C-165.50365911 256.65243691 -167.00735771 255.30491634 -168.51269531 253.95922852 C-178.71739926 244.7624561 -190.88321666 233.47947889 -193.5078125 219.24609375 C-194.13344156 216.3910405 -195.09326731 215.65382018 -197.375 213.875 C-205.00186869 207.59002203 -211.84986286 200.4726488 -218.2578125 192.9609375 C-220.2543789 190.71368115 -222.36012946 188.61105073 -224.5 186.5 C-227.33136024 183.7022892 -230.06705034 180.87145237 -232.6875 177.875 C-233.25855469 177.22660156 -233.82960937 176.57820312 -234.41796875 175.91015625 C-236 174 -236 174 -237.23828125 172.12109375 C-240.92047324 166.84290524 -245.7162431 165.36139504 -251.70703125 163.68481445 C-258.0114395 161.9069139 -258.0114395 161.9069139 -260 159 C-260.6096772 154.88467889 -260.39579343 152.71547274 -258.375 149.0625 C-252.46564477 145.45122736 -245.6518579 146.04302705 -238.98486328 147.41455078 C-234.92615078 148.4142094 -230.95540295 149.65347985 -227 151 C-227 148.03 -227 145.06 -227 142 C-227.763125 141.9175 -228.52625 141.835 -229.3125 141.75 C-232 141 -232 141 -233.875 139.25 C-235 137 -235 137 -234.875 134.4375 C-233.94940321 131.85905181 -233.16776599 130.64750215 -231 129 C-230.34 129 -229.68 129 -229 129 C-229.061875 127.948125 -229.12375 126.89625 -229.1875 125.8125 C-228.9909572 121.81612976 -228.39429484 120.13100094 -226 117 C-223.16203273 115.58101637 -221.15132579 115.72747365 -218 116 C-215.26171875 117.49609375 -215.26171875 117.49609375 -212.6875 119.4375 C-211.82511719 120.07558594 -210.96273437 120.71367187 -210.07421875 121.37109375 C-208 123 -208 123 -207 124 C-203.97192956 124.1603556 -200.96414546 124.25960448 -197.93359375 124.31640625 C-197.02497086 124.33718735 -196.11634796 124.35796844 -195.18019104 124.37937927 C-192.26604054 124.44497672 -189.35179696 124.5038068 -186.4375 124.5625 C-184.46678709 124.60567554 -182.49608374 124.64928951 -180.52539062 124.69335938 C-175.68369012 124.80066843 -170.84189563 124.90190675 -166 125 C-166 124.34 -166 123.68 -166 123 C-167.134375 122.896875 -168.26875 122.79375 -169.4375 122.6875 C-174.23624435 122.06992247 -178.46748222 120.64936893 -183 119 C-184.18851562 118.61070312 -185.37703125 118.22140625 -186.6015625 117.8203125 C-206.62683429 111.06277266 -224.48309039 97.80517734 -234.1640625 78.703125 C-239.1277933 68.06145753 -239.96492303 53.49200851 -236.8203125 42.04296875 C-233.9552055 34.90748798 -229.431497 28.41764114 -224 23 C-223.5359375 22.52691406 -223.071875 22.05382812 -222.59375 21.56640625 C-213.78067629 13.98986074 -198.6963192 14.50794332 -187.64819336 14.60888672 C-185.56622604 14.62497121 -183.48620626 14.60892364 -181.40429688 14.58984375 C-171.62076612 14.57576817 -162.55958284 15.92102542 -153 18 C-148.71328496 18.91644365 -144.55883028 19.20313573 -140.1875 19.375 C-133.10508087 19.71830197 -126.39195187 20.69531743 -119.46484375 22.18359375 C-107.7426948 24.47295207 -96.01618132 25.37331429 -84.09057617 25.37060547 C-81.93394471 25.37500726 -79.77932408 25.41161636 -77.62304688 25.44921875 C-58.64326541 25.60326951 -44.00631666 18.54288406 -27.75 9.375 C-27.07122803 8.99263184 -26.39245605 8.61026367 -25.69311523 8.21630859 C-25.03384033 7.8445752 -24.37456543 7.4728418 -23.6953125 7.08984375 C-23.06141602 6.7326123 -22.42751953 6.37538086 -21.77441406 6.00732422 C-20.21522844 5.12218389 -18.66541027 4.22058513 -17.1171875 3.31640625 C-11.61836909 0.27395656 -6.30113351 -1.53557035 0 0 Z " fill="#090A0A" transform="translate(474,229)"/>
<path d="M0 0 C-0.0721875 0.85980469 -0.144375 1.71960938 -0.21875 2.60546875 C-1.66935648 21.08055411 -2.15732815 34.19016389 10 49 C10.41846191 49.51320801 10.83692383 50.02641602 11.26806641 50.55517578 C17.88389741 58.63627445 24.86127159 66.38013472 32 74 C32.63679687 74.70253906 33.27359375 75.40507812 33.9296875 76.12890625 C46.14016526 89.15529151 63.42031393 89.28759676 80.1875 89.88671875 C81.445625 89.92410156 82.70375 89.96148437 84 90 C82.19656697 93.78386217 79.85520396 96.92405647 77.25 100.1875 C76.77046875 100.79263428 76.2909375 101.39776855 75.796875 102.02124023 C68.23018541 111.5290656 60.50403999 120.91461687 52.61254883 130.15454102 C44.59172423 139.54642218 37.18169959 149.32310057 29.9609375 159.34375 C26.7701211 163.66597142 23.39510779 167.83738114 20 172 C15.44397445 171.5159703 15.44397445 171.5159703 13.41015625 169.15234375 C12.74306641 168.05599609 12.74306641 168.05599609 12.0625 166.9375 C10.62736216 164.75981166 10.62736216 164.75981166 9 163 C5.78444577 162.24616662 5.78444577 162.24616662 3 163 C1.76754396 164.03466773 1.76754396 164.03466773 1.66015625 166.24609375 C2.12711451 170.0300659 3.78222149 171.38236709 6.4375 174.0625 C11.82565943 179.53498117 11.82565943 179.53498117 12 183 C10.0625 185.75 10.0625 185.75 8 188 C1.31816078 186.76262237 -3.71261437 185.65831302 -8.3125 180.3125 C-11.06384841 177.94506067 -11.69882282 177.58169808 -15.125 177.375 C-19.03180183 177.60107032 -19.03180183 177.60107032 -21 180.125 C-22.14269902 183.41025967 -22.51368804 185.55095171 -22 189 C-20.56338689 191.52006844 -20.56338689 191.52006844 -18 193 C-14.77724581 193.28774591 -12.1398131 193.3738587 -9.046875 192.359375 C-6.33275296 191.88284976 -5.1360621 192.62516584 -2.75 193.9375 C-2.04359375 194.31777344 -1.3371875 194.69804687 -0.609375 195.08984375 C-0.07828125 195.39019531 0.4528125 195.69054687 1 196 C0.33857373 201.1142424 -3.52297359 203.93728467 -6.96875 207.46484375 C-9.08493569 210.10600627 -9.66719916 211.67793444 -10 215 C-15.65898503 215.89352395 -18.65545183 213.53323585 -23.2109375 210.6171875 C-26.00540317 208.99686707 -28.63463619 207.9766014 -31.6875 206.9375 C-50.24684216 200.13679542 -70.9201622 187.88069479 -86 175 C-86 174.01 -86 173.02 -86 172 C-86.66 171.67 -87.32 171.34 -88 171 C-87.97679687 170.37351562 -87.95359375 169.74703125 -87.9296875 169.1015625 C-87.91164063 168.28429687 -87.89359375 167.46703125 -87.875 166.625 C-87.85179687 165.81289063 -87.82859375 165.00078125 -87.8046875 164.1640625 C-87.78629949 161.78657757 -87.78629949 161.78657757 -90 160 C-93.34656094 159.81057202 -96.22282102 159.77636026 -99.45703125 160.70703125 C-102 161 -102 161 -104.1484375 159.8046875 C-104.88320313 159.16789063 -105.61796875 158.53109375 -106.375 157.875 C-107.24125 157.13507813 -108.1075 156.39515625 -109 155.6328125 C-109.99 154.76398438 -110.98 153.89515625 -112 153 C-113.18588088 151.99548126 -114.37346943 150.99297602 -115.5625 149.9921875 C-121.86999182 144.65225742 -128.05201591 139.1765636 -134 133.4375 C-134.52255371 132.94926758 -135.04510742 132.46103516 -135.58349609 131.95800781 C-137 130.55859375 -137 130.55859375 -139 128 C-139.019308 124.53743165 -137.08715743 122.65296755 -134.8125 120.1875 C-131.85975595 116.94920252 -129.02962324 113.64731838 -126.26171875 110.25 C-125 109 -125 109 -123 109 C-123 108.34 -123 107.68 -123 107 C-118.71 107.33 -114.42 107.66 -110 108 C-110.33 106.02 -110.66 104.04 -111 102 C-111.99741211 101.77860352 -112.99482422 101.55720703 -114.02246094 101.32910156 C-117.78122061 100.49299568 -121.53806573 99.64853864 -125.29443359 98.80175781 C-126.90949578 98.43885857 -128.52504513 98.07811946 -130.14111328 97.71972656 C-152.2558191 92.81144096 -152.2558191 92.81144096 -158 90 C-158.33 89.01 -158.66 88.02 -159 87 C-158.25105469 86.62746094 -157.50210937 86.25492187 -156.73046875 85.87109375 C-153.46138537 83.63090643 -152.2137134 81.51886323 -150.3125 78.0625 C-149.73113281 77.02222656 -149.14976562 75.98195313 -148.55078125 74.91015625 C-148.03902344 73.94980469 -147.52726562 72.98945313 -147 72 C-146.63519531 71.36191406 -146.27039063 70.72382813 -145.89453125 70.06640625 C-138.72892636 53.51354605 -141.13870318 31.39663234 -143 14 C-142.27135742 13.9904126 -141.54271484 13.9808252 -140.79199219 13.97094727 C-139.95313477 13.95990967 -139.11427734 13.94887207 -138.25 13.9375 C-133.4891092 13.8748567 -133.4891092 13.8748567 -131.13549805 14.47705078 C-128.82432807 15.04301924 -126.62521212 15.27402755 -124.25390625 15.46484375 C-123.3402832 15.54162354 -122.42666016 15.61840332 -121.48535156 15.69750977 C-120.52081055 15.77670654 -119.55626953 15.85590332 -118.5625 15.9375 C-111.33259348 16.5588385 -104.1975418 17.28482289 -97.046875 18.53515625 C-87.68843406 19.96291839 -78.40126638 20.18629958 -68.95117188 20.18530273 C-66.63653147 20.18748911 -64.32236908 20.20570602 -62.0078125 20.22460938 C-47.78819215 21.0787117 -47.78819215 21.0787117 -35.31347656 16.47973633 C-34.8800293 15.99142334 -34.44658203 15.50311035 -34 15 C-31.8984375 14.1484375 -31.8984375 14.1484375 -29.375 13.375 C-23.96195079 11.51743888 -19.03349489 9.06544524 -14 6.375 C-13.2579834 5.97845215 -12.5159668 5.5819043 -11.75146484 5.17333984 C-2.18463044 0 -2.18463044 0 0 0 Z " fill="#FCFCFC" transform="translate(461,249)"/>
<path d="M0 0 C2.80078125 1.5 2.80078125 1.5 5 4 C5.4917208 6.90900053 5.20009791 9.64400738 4.875 12.5625 C4.813125 13.33013672 4.75125 14.09777344 4.6875 14.88867188 C4.40873428 18.08611468 4.01754927 20.9473522 3 24 C1.76095606 36.51623067 0.76697692 48.92373371 8.6640625 59.30078125 C9.43492187 60.19152344 10.20578125 61.08226562 11 62 C11.70898438 62.92167969 12.41796875 63.84335937 13.1484375 64.79296875 C18.68005557 71.8722417 24.8375942 78.4688203 31 85 C31.6496875 85.72960937 32.299375 86.45921875 32.96875 87.2109375 C41.96003546 95.13018508 57.80943827 94.47738908 69 94 C71.00049382 93.66964322 73.00049153 93.33626921 75 93 C77.20570281 92.86378082 79.41531303 92.78104947 81.625 92.75 C82.73101563 92.72421875 83.83703125 92.6984375 84.9765625 92.671875 C88.35723644 93.03876985 89.69706367 93.5178257 92 96 C93.27633817 99.79542666 92.91687014 103.14072516 92 107 C89.52736412 111.41907033 86.5878834 115.29970868 83.41552734 119.23583984 C82.05348483 120.93334229 80.73373421 122.65514074 79.42578125 124.39453125 C72.90278229 133.05188916 66.04693424 141.43553331 59.01416016 149.68237305 C53.3482581 156.33109502 47.89436046 163.1172675 42.5390625 170.01806641 C40.8317285 172.21669227 39.11919485 174.4112118 37.40625 176.60546875 C36.1664979 178.1951809 34.92691268 179.78502321 33.6875 181.375 C33.11281982 182.11194092 32.53813965 182.84888184 31.94604492 183.6081543 C28.24451912 188.36664572 24.60071097 193.16478286 21 198 C22.54581503 201.302191 24.0032937 203.04222653 26.875 205.3125 C31.53997516 209.28196978 34.55906592 212.85047086 35.4375 219.125 C34.91268825 222.57376292 34.24863528 224.31614499 32 227 C22.24710462 232.97116044 9.52914887 228.07709016 -1 226 C-1.24878906 226.55171875 -1.49757813 227.1034375 -1.75390625 227.671875 C-3.23118822 230.43193787 -5.03230441 232.76650481 -6.9375 235.25 C-9.39771982 238.57018855 -11.4321924 241.51352543 -12.75 245.4375 C-14.02473048 249.07048187 -15.20244776 250.48220298 -18 253 C-18.33 253.99 -18.66 254.98 -19 256 C-18.39671875 256.24105469 -17.7934375 256.48210937 -17.171875 256.73046875 C-12.97571897 259.1832578 -11.47933382 263.53276268 -10 268 C-8.86825281 276.00928778 -9.59841469 283.12252296 -14 290 C-18.91532669 296.03882994 -28.17205952 302.97629838 -35.98754883 304.34912109 C-45.41453175 305.18226806 -52.97259222 304.74853995 -60.8359375 299.01953125 C-63 297 -63 297 -64.8515625 294.19921875 C-65.56054688 293.47347656 -66.26953125 292.74773437 -67 292 C-69.31 292.33 -71.62 292.66 -74 293 C-80.27 293 -86.54 293 -93 293 C-92.01 312.305 -92.01 312.305 -91 332 C-85.555 333.485 -85.555 333.485 -80 335 C-76 339 -76 339 -75.50390625 341.4375 C-75.52324219 342.283125 -75.54257812 343.12875 -75.5625 344 C-75.56443359 345.2684375 -75.56443359 345.2684375 -75.56640625 346.5625 C-76.10848867 349.60988224 -76.6822675 350.92300957 -79 353 C-87.60382705 354.40302216 -95.45571624 353.34632147 -103 349 C-104.03382813 348.649375 -105.06765625 348.29875 -106.1328125 347.9375 C-109.33527794 345.77343616 -109.48087406 345.40911301 -110.20703125 341.83203125 C-110.43645432 340.1624148 -110.63733876 338.48867797 -110.8125 336.8125 C-110.92013672 335.98685547 -111.02777344 335.16121094 -111.13867188 334.31054688 C-111.35101817 332.65737232 -111.54974749 331.00239201 -111.73486328 329.34594727 C-111.96911909 327.2732363 -112.25236804 325.20618976 -112.54296875 323.140625 C-113.34982754 316.71551915 -113.39113996 310.22144451 -113.60546875 303.75585938 C-113.79985699 298.43029188 -114.10540913 293.25572136 -115 288 C-115.6084375 287.89945313 -116.216875 287.79890625 -116.84375 287.6953125 C-125.78311859 285.77597748 -132.59081363 281.26935076 -140.08251953 276.27246094 C-141.81988279 275.11952774 -143.57876825 273.99919019 -145.33984375 272.8828125 C-152.18755666 268.49393087 -158.08556185 263.56335278 -164 258 C-165.50365911 256.65243691 -167.00735771 255.30491634 -168.51269531 253.95922852 C-178.71739926 244.7624561 -190.88321666 233.47947889 -193.5078125 219.24609375 C-194.13344156 216.3910405 -195.09326731 215.65382018 -197.375 213.875 C-205.00186869 207.59002203 -211.84986286 200.4726488 -218.2578125 192.9609375 C-220.2543789 190.71368115 -222.36012946 188.61105073 -224.5 186.5 C-227.33136024 183.7022892 -230.06705034 180.87145237 -232.6875 177.875 C-233.25855469 177.22660156 -233.82960937 176.57820312 -234.41796875 175.91015625 C-236 174 -236 174 -237.23828125 172.12109375 C-240.92047324 166.84290524 -245.7162431 165.36139504 -251.70703125 163.68481445 C-258.0114395 161.9069139 -258.0114395 161.9069139 -260 159 C-260.6096772 154.88467889 -260.39579343 152.71547274 -258.375 149.0625 C-252.46564477 145.45122736 -245.6518579 146.04302705 -238.98486328 147.41455078 C-234.92615078 148.4142094 -230.95540295 149.65347985 -227 151 C-227 148.03 -227 145.06 -227 142 C-227.763125 141.9175 -228.52625 141.835 -229.3125 141.75 C-232 141 -232 141 -233.875 139.25 C-235 137 -235 137 -234.875 134.4375 C-233.94940321 131.85905181 -233.16776599 130.64750215 -231 129 C-230.34 129 -229.68 129 -229 129 C-229.061875 127.948125 -229.12375 126.89625 -229.1875 125.8125 C-228.9909572 121.81612976 -228.39429484 120.13100094 -226 117 C-223.16203273 115.58101637 -221.15132579 115.72747365 -218 116 C-215.26171875 117.49609375 -215.26171875 117.49609375 -212.6875 119.4375 C-211.82511719 120.07558594 -210.96273437 120.71367187 -210.07421875 121.37109375 C-208 123 -208 123 -207 124 C-203.97192956 124.1603556 -200.96414546 124.25960448 -197.93359375 124.31640625 C-197.02497086 124.33718735 -196.11634796 124.35796844 -195.18019104 124.37937927 C-192.26604054 124.44497672 -189.35179696 124.5038068 -186.4375 124.5625 C-184.46678709 124.60567554 -182.49608374 124.64928951 -180.52539062 124.69335938 C-175.68369012 124.80066843 -170.84189563 124.90190675 -166 125 C-166 124.34 -166 123.68 -166 123 C-167.134375 122.896875 -168.26875 122.79375 -169.4375 122.6875 C-174.23624435 122.06992247 -178.46748222 120.64936893 -183 119 C-184.18851562 118.61070312 -185.37703125 118.22140625 -186.6015625 117.8203125 C-206.62683429 111.06277266 -224.48309039 97.80517734 -234.1640625 78.703125 C-239.1277933 68.06145753 -239.96492303 53.49200851 -236.8203125 42.04296875 C-233.9552055 34.90748798 -229.431497 28.41764114 -224 23 C-223.5359375 22.52691406 -223.071875 22.05382812 -222.59375 21.56640625 C-213.78067629 13.98986074 -198.6963192 14.50794332 -187.64819336 14.60888672 C-185.56622604 14.62497121 -183.48620626 14.60892364 -181.40429688 14.58984375 C-171.62076612 14.57576817 -162.55958284 15.92102542 -153 18 C-148.71328496 18.91644365 -144.55883028 19.20313573 -140.1875 19.375 C-133.10508087 19.71830197 -126.39195187 20.69531743 -119.46484375 22.18359375 C-107.7426948 24.47295207 -96.01618132 25.37331429 -84.09057617 25.37060547 C-81.93394471 25.37500726 -79.77932408 25.41161636 -77.62304688 25.44921875 C-58.64326541 25.60326951 -44.00631666 18.54288406 -27.75 9.375 C-27.07122803 8.99263184 -26.39245605 8.61026367 -25.69311523 8.21630859 C-25.03384033 7.8445752 -24.37456543 7.4728418 -23.6953125 7.08984375 C-23.06141602 6.7326123 -22.42751953 6.37538086 -21.77441406 6.00732422 C-20.21522844 5.12218389 -18.66541027 4.22058513 -17.1171875 3.31640625 C-11.61836909 0.27395656 -6.30113351 -1.53557035 0 0 Z M-15.8125 8.8125 C-16.9365625 9.44671875 -18.060625 10.0809375 -19.21875 10.734375 C-21.93915573 12.340572 -24.61418561 14.01001537 -27.28125 15.703125 C-43.17190096 25.75632349 -56.67272105 31.22418871 -75.625 31.25 C-76.33175873 31.25200409 -77.03851746 31.25400818 -77.76669312 31.256073 C-109.16662029 31.27779324 -109.16662029 31.27779324 -122 27 C-124.95884237 26.66194638 -127.90963288 26.3639955 -130.875 26.09765625 C-132.68359845 25.9277844 -134.49219204 25.75786082 -136.30078125 25.58789062 C-139.13967505 25.32539184 -141.97870299 25.06444666 -144.81787109 24.80493164 C-163.56489402 23.08259611 -163.56489402 23.08259611 -171.87841797 21.4128418 C-187.26604418 18.41854077 -206.56764061 18.0372109 -220 27 C-226.18254926 31.98170796 -230.85146331 37.98191367 -232 46 C-232.62540239 56.53373834 -232.8444036 67.02285733 -229 77 C-228.34 77 -227.68 77 -227 77 C-226.74476563 77.88816406 -226.48953125 78.77632813 -226.2265625 79.69140625 C-221.33521235 92.88558961 -207.75795336 101.49138562 -196 108 C-193.68645351 109.05636617 -191.35129885 110.02812981 -189 111 C-188.34 111.350625 -187.68 111.70125 -187 112.0625 C-184.74043234 113.12167234 -182.44240197 113.72168074 -180.0390625 114.37109375 C-177.70751786 115.09021001 -175.50146567 115.99760243 -173.25 116.9375 C-165.10027693 120.26416997 -156.58862651 122.16963697 -148 124 C-148 126 -148 126 -149.17506409 127.59577942 C-151.60530537 129.46576006 -153.14823157 129.41048685 -156.19897461 129.4675293 C-157.79224831 129.50592171 -157.79224831 129.50592171 -159.41770935 129.54508972 C-160.5676387 129.5547023 -161.71756805 129.56431488 -162.90234375 129.57421875 C-164.68446007 129.59631157 -164.68446007 129.59631157 -166.50257874 129.61885071 C-169.02354487 129.64283356 -171.54460489 129.6582325 -174.06567383 129.66577148 C-177.89245426 129.68724721 -181.71512681 129.76732423 -185.54101562 129.84960938 C-207.75290898 130.08898014 -207.75290898 130.08898014 -216.26391602 122.82348633 C-216.83682373 122.22173584 -217.40973145 121.61998535 -218 121 C-219.0595877 119.71677453 -219.0595877 119.71677453 -221.5 119.875 C-223.9404123 119.71677453 -223.9404123 119.71677453 -225 121 C-225.04080783 122.99958364 -225.04254356 125.00045254 -225 127 C-224.34 127.33 -223.68 127.66 -223 128 C-223.804375 128.309375 -224.60875 128.61875 -225.4375 128.9375 C-227.89080405 129.76335345 -227.89080405 129.76335345 -229 131 C-229.26293056 135.03160191 -229.29404844 136.55892734 -227 140 C-223.93443402 140.73343428 -223.93443402 140.73343428 -221 141 C-221.495 141.391875 -221.99 141.78375 -222.5 142.1875 C-224.24302195 143.94822371 -224.24302195 143.94822371 -224.25 146.625 C-224.25676839 148.95296435 -224.25676839 148.95296435 -223 150 C-220.61767317 150.45385351 -220.61767317 150.45385351 -218 150 C-216.0997938 148.02889508 -216.0997938 148.02889508 -214.2265625 145.56640625 C-205.98371884 137.76246725 -194.0128174 139.79925626 -183.375 139.9375 C-181.10806369 139.93442212 -178.84112906 139.92729948 -176.57421875 139.91601562 C-171.04863644 139.89726569 -165.52511768 139.92885475 -160 140 C-160 140.66 -160 141.32 -160 142 C-160.763125 142.103125 -161.52625 142.20625 -162.3125 142.3125 C-165.30013204 143.07677796 -166.21283059 143.53200415 -168 146 C-168.28359375 146.93585938 -168.5671875 147.87171875 -168.859375 148.8359375 C-170.03648338 152.10120389 -171.28572301 153.85715274 -173.5625 156.4375 C-181.00937598 165.42791028 -192.21636453 180.14653202 -192.3125 192.1875 C-192.1578125 193.5796875 -192.1578125 193.5796875 -192 195 C-197.24006253 190.6007498 -202.11779404 185.92865686 -206.92211914 181.05834961 C-209.61327321 178.34476536 -212.35329328 175.74251508 -215.25 173.25 C-225.73875678 164.18564228 -225.73875678 164.18564228 -226.8125 159.3125 C-227.63380558 155.90386978 -227.63380558 155.90386978 -230.15625 154.7421875 C-232.7464313 153.71373316 -235.34351567 152.84035711 -238 152 C-238.8353125 151.64164063 -239.670625 151.28328125 -240.53125 150.9140625 C-243.07230992 149.97322703 -244.99041405 149.70123728 -247.6875 149.6875 C-248.83798828 149.66236328 -248.83798828 149.66236328 -250.01171875 149.63671875 C-250.66785156 149.75660156 -251.32398438 149.87648438 -252 150 C-254.24621573 152.74605843 -254.24621573 152.74605843 -253.9375 155.5 C-253.19297201 158.10865975 -253.19297201 158.10865975 -251.0625 159.625 C-247.54994027 161.20206764 -244.05316512 162.10642133 -240.3046875 162.9609375 C-237.22314289 164.35024405 -236.56968811 166.05467864 -235 169 C-229.95191936 175.41082541 -224.01297048 180.94817104 -218.0625 186.5 C-215.82127855 188.60216117 -213.580792 190.70510095 -211.34082031 192.80859375 C-209.76396624 194.28479756 -208.18247888 195.75606586 -206.59667969 197.22265625 C-197.27201868 205.88799779 -189.82363347 213.58718745 -184.7109375 225.3125 C-173.75859914 250.18424129 -145.13022166 270.1242983 -120.7265625 280.375 C-115.50124078 282.3893243 -115.50124078 282.3893243 -110 283 C-110.02320313 283.6084375 -110.04640625 284.216875 -110.0703125 284.84375 C-110.19908123 291.09823127 -109.65647495 297.04672339 -108.78173828 303.23681641 C-107.83538689 310.38684212 -107.60524488 317.54932524 -107.42993164 324.75488281 C-107.3685997 335.82845671 -107.3685997 335.82845671 -102.95703125 345.578125 C-98.85177431 347.55211909 -95.19308439 347.6717657 -90.6875 347.75 C-89.85154297 347.77964844 -89.01558594 347.80929687 -88.15429688 347.83984375 C-86.10337515 347.91016107 -84.05168438 347.95738973 -82 348 C-80.64560332 345.29120665 -80.93498549 342.99066732 -81 340 C-81.99 339.67 -82.98 339.34 -84 339 C-84 338.34 -84 337.68 -84 337 C-89.445 335.515 -89.445 335.515 -95 334 C-96.46154089 318.34285451 -97.77648591 302.67750371 -99 287 C-98.41009277 287.16081055 -97.82018555 287.32162109 -97.21240234 287.48730469 C-86.6840443 289.92711399 -75.22440247 287.68390565 -65 285 C-64.73574219 285.76054688 -64.47148437 286.52109375 -64.19921875 287.3046875 C-61.91922198 292.4291102 -57.49642031 295.13668059 -52.75 297.875 C-44.13655433 300.4590337 -37.38812295 299.41319241 -29.44140625 295.34375 C-28.63574219 294.9003125 -27.83007812 294.456875 -27 294 C-25.88625 293.4225 -24.7725 292.845 -23.625 292.25 C-19.06208046 288.33892611 -16.51086139 284.06104846 -15.515625 278.09765625 C-15.17943684 270.84159507 -16.72536011 264.92825059 -21 259 C-23.06675003 257.2505434 -23.06675003 257.2505434 -25 256 C-24.43120775 252.47195076 -23.27385631 251.02899956 -20.625 248.6875 C-17.78268675 245.97125709 -16.35142709 243.83546152 -15.0078125 240.09375 C-12.14552339 234.14728891 -7.30491925 228.89631301 -3.21875 223.76171875 C-1.81035817 222.08290301 -1.81035817 222.08290301 -2 220 C-0.99582031 220.28875 0.00835937 220.5775 1.04296875 220.875 C9.63924999 223.24631512 18.0043065 225.22023603 27 224 C29.21760918 222.14455834 29.21760918 222.14455834 29.5625 219.375 C28.70656973 214.23941841 25.58844542 211.60856755 22 208 C21.25878906 207.24460937 20.51757812 206.48921875 19.75390625 205.7109375 C17.85104657 203.79111828 15.93379192 201.88858639 14 200 C17.59275576 194.36590574 21.4551231 189.09921567 25.67578125 183.921875 C28.47355352 180.40467557 31.13871633 176.79922119 33.8125 173.1875 C38.46854266 166.92260535 43.34044814 160.91187684 48.4296875 154.99609375 C51.50875977 151.4069624 54.49842457 147.75182616 57.48046875 144.08203125 C59.45008987 141.67268076 61.43259362 139.27647392 63.42578125 136.88671875 C72.67804603 125.79468462 72.67804603 125.79468462 81 114 C81.5878125 113.12601562 82.175625 112.25203125 82.78125 111.3515625 C83.3484375 110.47242188 83.915625 109.59328125 84.5 108.6875 C85.0053125 107.90761719 85.510625 107.12773437 86.03125 106.32421875 C87.23052744 103.44692004 86.70766349 101.97274146 86 99 C84.97229492 99.01047363 83.94458984 99.02094727 82.88574219 99.03173828 C79.01663801 99.06836 75.14754863 99.0910514 71.27832031 99.10986328 C69.61423147 99.11982596 67.95015969 99.13340102 66.28613281 99.15087891 C38.52537491 99.43483371 38.52537491 99.43483371 28 90 C24.66988153 86.6797194 21.53063224 83.24059164 18.45605469 79.68408203 C16.9430093 77.9340842 15.41366596 76.19927319 13.8828125 74.46484375 C-5.66290002 52.17065761 -5.66290002 52.17065761 -5.23046875 38.84765625 C-4.66669195 31.88166839 -3.98425002 24.75183579 -1.875 18.0625 C-0.87259453 14.55408086 -0.7152037 11.63115283 -1 8 C-2.91661531 5.65725899 -2.91661531 5.65725899 -6.26171875 5.69921875 C-10.26657592 6.02144864 -12.35094507 6.83380662 -15.8125 8.8125 Z " fill="#E3E4E3" transform="translate(474,229)"/>
<path d="M0 0 C2.87579874 0.34356888 3.8746978 0.86258876 5.859375 3.0390625 C6.48328125 3.89242188 7.1071875 4.74578125 7.75 5.625 C10.85113644 9.66622216 14.00443769 12.94841218 17.90234375 16.203125 C20.36695335 18.3143362 22.68554369 20.53788566 25 22.8125 C25.763125 23.56144531 26.52625 24.31039063 27.3125 25.08203125 C29 27 29 27 29 29 C28.18015625 29.39832031 27.3603125 29.79664063 26.515625 30.20703125 C25.43796875 30.73683594 24.3603125 31.26664062 23.25 31.8125 C21.64898437 32.59560547 21.64898437 32.59560547 20.015625 33.39453125 C17.44766758 34.7616692 15.25529217 36.17715463 13 38 C14.0681847 43.11365014 15.23107476 48.07227969 17 53 C20.83980251 52.42997622 23.4362794 51.34271783 26.6875 49.2421875 C27.55117188 48.69949219 28.41484375 48.15679687 29.3046875 47.59765625 C31.10511613 46.44694752 32.90199405 45.29066473 34.6953125 44.12890625 C35.55898438 43.58878906 36.42265625 43.04867187 37.3125 42.4921875 C38.09238281 41.99058105 38.87226563 41.48897461 39.67578125 40.97216797 C42.59925757 39.74934416 44.01769588 40.03075116 47 41 C51.89454688 44.13251 53.66161691 46.65678511 55.2109375 52.19140625 C56.4065263 56.44699213 57.91107141 60.6014563 59.37524414 64.77099609 C60.50055092 68.08346414 61 70.44799279 61 74 C61.66 74 62.32 74 63 74 C64.32 76.97 65.64 79.94 67 83 C73.26182227 82.38682161 73.26182227 82.38682161 79 80 C79.99 80 80.98 80 82 80 C79.98852824 74.74158397 77.99318936 69.78910297 75 65 C75 64.34 75 63.68 75 63 C79.62413859 64.7444855 83.78826195 67.04353087 88.0859375 69.46484375 C91.03675358 71.06910249 91.03675358 71.06910249 94.375 72.4453125 C97.55819283 73.81051805 100.58131134 75.30334534 103.64550781 76.90600586 C112.52709822 81.5341163 121.25790825 84.61086798 131 87 C124.93856529 100.66853527 107.54416502 108.36483439 95 115 C79.66885019 120.11038327 62.22417741 115.06410285 48 109 C47.3208252 108.7117334 46.64165039 108.4234668 45.94189453 108.12646484 C32.9872015 102.46355549 21.82453713 93.98089758 11 85 C10.02675781 84.23042969 9.05351562 83.46085937 8.05078125 82.66796875 C4.80579521 79.9532697 2.21110487 76.89865057 -0.375 73.5625 C-0.84615234 72.95776855 -1.31730469 72.35303711 -1.80273438 71.72998047 C-10.54181272 60.25475243 -18.48548701 47.89671479 -17 33 C-14.84481679 20.72904696 -7.29410368 9.82154386 0 0 Z " fill="#F9F9F9" transform="translate(308,391)"/>
<path d="M0 0 C2.80078125 1.5 2.80078125 1.5 5 4 C5.4917208 6.90900053 5.20009791 9.64400738 4.875 12.5625 C4.813125 13.33013672 4.75125 14.09777344 4.6875 14.88867188 C4.40873428 18.08611468 4.01754927 20.9473522 3 24 C1.76095606 36.51623067 0.76697692 48.92373371 8.6640625 59.30078125 C9.43492187 60.19152344 10.20578125 61.08226562 11 62 C11.70898438 62.92167969 12.41796875 63.84335937 13.1484375 64.79296875 C18.68005557 71.8722417 24.8375942 78.4688203 31 85 C31.6496875 85.72960937 32.299375 86.45921875 32.96875 87.2109375 C41.96003546 95.13018508 57.80943827 94.47738908 69 94 C71.00049382 93.66964322 73.00049153 93.33626921 75 93 C77.20570281 92.86378082 79.41531303 92.78104947 81.625 92.75 C82.73101563 92.72421875 83.83703125 92.6984375 84.9765625 92.671875 C88.35723644 93.03876985 89.69706367 93.5178257 92 96 C93.27633817 99.79542666 92.91687014 103.14072516 92 107 C89.52736412 111.41907033 86.5878834 115.29970868 83.41552734 119.23583984 C82.05348483 120.93334229 80.73373421 122.65514074 79.42578125 124.39453125 C72.90278229 133.05188916 66.04693424 141.43553331 59.01416016 149.68237305 C53.3482581 156.33109502 47.89436046 163.1172675 42.5390625 170.01806641 C40.8317285 172.21669227 39.11919485 174.4112118 37.40625 176.60546875 C36.1664979 178.1951809 34.92691268 179.78502321 33.6875 181.375 C33.11281982 182.11194092 32.53813965 182.84888184 31.94604492 183.6081543 C28.24451912 188.36664572 24.60071097 193.16478286 21 198 C22.54581503 201.302191 24.0032937 203.04222653 26.875 205.3125 C31.53997516 209.28196978 34.55906592 212.85047086 35.4375 219.125 C34.91268825 222.57376292 34.24863528 224.31614499 32 227 C22.24710462 232.97116044 9.52914887 228.07709016 -1 226 C-1.33 226.66 -1.66 227.32 -2 228 C-2.99435406 224.90645403 -2.87840996 223.09720845 -2 220 C2.23620652 220.3650246 6.1923532 220.73596162 10.25 222.0625 C15.7817155 223.44542888 21.32260153 223.35380889 27 223 C28.26254923 221.9236509 28.26254923 221.9236509 28.5 219.4375 C27.74238873 214.22892252 24.62213622 211.64244727 21 208 C20.25878906 207.24460937 19.51757812 206.48921875 18.75390625 205.7109375 C16.85104657 203.79111828 14.93379192 201.88858639 13 200 C16.59275576 194.36590574 20.4551231 189.09921567 24.67578125 183.921875 C27.47355352 180.40467557 30.13871633 176.79922119 32.8125 173.1875 C37.46854266 166.92260535 42.34044814 160.91187684 47.4296875 154.99609375 C50.50875977 151.4069624 53.49842457 147.75182616 56.48046875 144.08203125 C58.45008987 141.67268076 60.43259362 139.27647392 62.42578125 136.88671875 C71.68572541 125.80019341 71.68572541 125.80019341 80 114 C80.57621094 113.11441406 81.15242188 112.22882813 81.74609375 111.31640625 C85.18079305 106.0905702 85.18079305 106.0905702 86 100 C84.97229492 100.01047363 83.94458984 100.02094727 82.88574219 100.03173828 C79.01663801 100.06836 75.14754863 100.0910514 71.27832031 100.10986328 C69.61423147 100.11982596 67.95015969 100.13340102 66.28613281 100.15087891 C37.66528125 100.4436313 37.66528125 100.4436313 26.59472656 89.62695312 C22.91275669 85.88349411 19.44999393 81.95616646 16 78 C15.4755127 77.40670898 14.95102539 76.81341797 14.41064453 76.20214844 C-6.66881776 52.35298039 -6.66881776 52.35298039 -6.23046875 38.84765625 C-5.66669195 31.88166839 -4.98425002 24.75183579 -2.875 18.0625 C-1.87965944 14.57880803 -1.78366059 11.60565689 -2 8 C-3.14302468 6.63943099 -3.14302468 6.63943099 -6.19921875 6.76171875 C-10.28015298 7.01756355 -12.29492802 7.80178617 -15.8125 9.8125 C-16.9365625 10.44671875 -18.060625 11.0809375 -19.21875 11.734375 C-21.93915573 13.340572 -24.61418561 15.01001537 -27.28125 16.703125 C-43.17190096 26.75632349 -56.67272105 32.22418871 -75.625 32.25 C-76.33175873 32.25200409 -77.03851746 32.25400818 -77.76669312 32.256073 C-109.16662029 32.27779324 -109.16662029 32.27779324 -122 28 C-124.95884237 27.66194638 -127.90963288 27.3639955 -130.875 27.09765625 C-132.68359845 26.9277844 -134.49219204 26.75786082 -136.30078125 26.58789062 C-139.13967505 26.32539184 -141.97870299 26.06444666 -144.81787109 25.80493164 C-163.56489402 24.08259611 -163.56489402 24.08259611 -171.87841797 22.4128418 C-186.28518963 19.60940671 -204.59195808 19.10858339 -217.7109375 26.39453125 C-224.92864659 31.45678114 -229.03591566 37.46773911 -231 46 C-231.3630091 49.30674954 -231.38181666 52.55165113 -231.3125 55.875 C-231.30412109 56.74543945 -231.29574219 57.61587891 -231.28710938 58.51269531 C-231.1696846 64.81370881 -230.57244697 70.87868859 -229 77 C-228.34 77 -227.68 77 -227 77 C-225.7734375 78.87109375 -225.7734375 78.87109375 -224.375 81.4375 C-216.18031344 95.45160165 -203.76198352 103.8723842 -189 110 C-188.34 110.350625 -187.68 110.70125 -187 111.0625 C-184.74043234 112.12167234 -182.44240197 112.72168074 -180.0390625 113.37109375 C-177.70751786 114.09021001 -175.50146567 114.99760243 -173.25 115.9375 C-165.66807477 119.03239816 -157.80975588 120.94751471 -149.77734375 122.47265625 C-148 123 -148 123 -146 125 C-148.10453513 127.50553932 -149.29671489 128.86831888 -152.56903076 129.48101807 C-153.53721741 129.47213562 -154.50540405 129.46325317 -155.50292969 129.45410156 C-156.60376892 129.45379944 -157.70460815 129.45349731 -158.83880615 129.45318604 C-160.02121887 129.43254089 -161.20363159 129.41189575 -162.421875 129.390625 C-163.63699768 129.38496521 -164.85212036 129.37930542 -166.10406494 129.37347412 C-169.98644343 129.35107734 -173.86790028 129.30087187 -177.75 129.25 C-180.38149709 129.2299394 -183.01300864 129.21168787 -185.64453125 129.1953125 C-192.09666881 129.15120153 -198.54826856 129.08425519 -205 129 C-205.33 128.01 -205.66 127.02 -206 126 C-192.8 125.67 -179.6 125.34 -166 125 C-166 124.34 -166 123.68 -166 123 C-167.134375 122.896875 -168.26875 122.79375 -169.4375 122.6875 C-174.23624435 122.06992247 -178.46748222 120.64936893 -183 119 C-184.18851562 118.61070312 -185.37703125 118.22140625 -186.6015625 117.8203125 C-206.62683429 111.06277266 -224.48309039 97.80517734 -234.1640625 78.703125 C-239.1277933 68.06145753 -239.96492303 53.49200851 -236.8203125 42.04296875 C-233.9552055 34.90748798 -229.431497 28.41764114 -224 23 C-223.5359375 22.52691406 -223.071875 22.05382812 -222.59375 21.56640625 C-213.78067629 13.98986074 -198.6963192 14.50794332 -187.64819336 14.60888672 C-185.56622604 14.62497121 -183.48620626 14.60892364 -181.40429688 14.58984375 C-171.62076612 14.57576817 -162.55958284 15.92102542 -153 18 C-148.71328496 18.91644365 -144.55883028 19.20313573 -140.1875 19.375 C-133.10508087 19.71830197 -126.39195187 20.69531743 -119.46484375 22.18359375 C-107.7426948 24.47295207 -96.01618132 25.37331429 -84.09057617 25.37060547 C-81.93394471 25.37500726 -79.77932408 25.41161636 -77.62304688 25.44921875 C-58.64326541 25.60326951 -44.00631666 18.54288406 -27.75 9.375 C-27.07122803 8.99263184 -26.39245605 8.61026367 -25.69311523 8.21630859 C-25.03384033 7.8445752 -24.37456543 7.4728418 -23.6953125 7.08984375 C-23.06141602 6.7326123 -22.42751953 6.37538086 -21.77441406 6.00732422 C-20.21522844 5.12218389 -18.66541027 4.22058513 -17.1171875 3.31640625 C-11.61836909 0.27395656 -6.30113351 -1.53557035 0 0 Z " fill="#E6E6E6" transform="translate(474,229)"/>
<path d="M0 0 C2.73828125 1.49609375 2.73828125 1.49609375 5.3125 3.4375 C6.17488281 4.07558594 7.03726563 4.71367187 7.92578125 5.37109375 C10 7 10 7 11 8 C13.37338639 8.15971977 15.72118272 8.2592433 18.09765625 8.31640625 C19.16094398 8.3475779 19.16094398 8.3475779 20.24571228 8.37937927 C22.51787305 8.44494598 24.79015264 8.5037923 27.0625 8.5625 C28.59962183 8.60567849 30.1367315 8.64929255 31.67382812 8.69335938 C35.4490959 8.80063449 39.2244836 8.90188137 43 9 C43 9.33 43 9.66 43 10 C32.77 10 22.54 10 12 10 C12.495 10.99 12.495 10.99 13 12 C30.82 12.33 48.64 12.66 67 13 C67 13.33 67 13.66 67 14 C59.38735192 14.20416443 51.77541873 14.34348874 44.16064453 14.43945312 C41.57476419 14.47948923 38.9890627 14.53393661 36.40380859 14.60351562 C10.42447379 15.2848094 10.42447379 15.2848094 1.72949219 7.83007812 C1.15875977 7.22615234 0.58802734 6.62222656 0 6 C-1.06645115 4.70366379 -1.06645115 4.70366379 -3.5625 4.9375 C-4.366875 4.958125 -5.17125 4.97875 -6 5 C-6.33 6.98 -6.66 8.96 -7 11 C-6.01 11.33 -5.02 11.66 -4 12 C-4 12.33 -4 12.66 -4 13 C-5.98 13.66 -7.96 14.32 -10 15 C-10.20970559 19.14093698 -10.20970559 19.14093698 -9 23 C-6.67843403 23.40729228 -4.3431213 23.74438677 -2 24 C-2.495 24.556875 -2.99 25.11375 -3.5 25.6875 C-5.24754367 28.38162983 -5.26218749 29.85375007 -5 33 C-2.65919542 33.37369918 -2.65919542 33.37369918 0 33 C1.89927667 31.01077569 1.89927667 31.01077569 3.7734375 28.53515625 C10.71178223 21.96625585 18.8577616 23.0232694 27.94140625 23.20898438 C30.16930451 23.28416489 32.3971691 23.36034918 34.625 23.4375 C36.89184762 23.4826944 39.15878176 23.52375024 41.42578125 23.56054688 C46.95242299 23.65921572 52.47580608 23.80936646 58 24 C58 24.66 58 25.32 58 26 C57.21625 26.28875 56.4325 26.5775 55.625 26.875 C52.90328368 27.84912254 52.90328368 27.84912254 51 30 C50.55333984 31.40958984 50.55333984 31.40958984 50.09765625 32.84765625 C48.95410411 36.13180777 47.71823486 37.85266716 45.4375 40.4375 C36.8106146 50.85250346 26.91911705 65.21324425 26 79 C22.97022571 77.64768813 20.91527387 76.14519457 18.609375 73.76953125 C17.98619385 73.13474854 17.3630127 72.49996582 16.72094727 71.84594727 C15.74532837 70.83939087 15.74532837 70.83939087 14.75 69.8125 C8.82575492 63.75914989 8.82575492 63.75914989 2.5625 58.0625 C-0.13221907 55.75695261 -2.78971113 53.4286047 -5.375 51 C-6.02210938 50.401875 -6.66921875 49.80375 -7.3359375 49.1875 C-9 47 -9 47 -9.80859375 43.4296875 C-10.66649014 39.75522368 -10.66649014 39.75522368 -14.01171875 38.2578125 C-15.22472656 37.88398438 -16.43773437 37.51015625 -17.6875 37.125 C-18.88761719 36.73570312 -20.08773437 36.34640625 -21.32421875 35.9453125 C-24.88172302 35.03041767 -28.36429327 34.49335385 -32 34 C-34.4375 32.9375 -34.4375 32.9375 -36 32 C-36.4021875 32.9590625 -36.4021875 32.9590625 -36.8125 33.9375 C-38 36 -38 36 -41 37 C-41 38.98 -41 40.96 -41 43 C-41.33 43 -41.66 43 -42 43 C-42.39348458 38.98645732 -42.34629226 36.62598986 -40.375 33.0625 C-34.46564477 29.45122736 -27.6518579 30.04302705 -20.98486328 31.41455078 C-16.92615078 32.4142094 -12.95540295 33.65347985 -9 35 C-9 32.03 -9 29.06 -9 26 C-9.763125 25.9175 -10.52625 25.835 -11.3125 25.75 C-14 25 -14 25 -15.875 23.25 C-17 21 -17 21 -16.875 18.4375 C-15.94940321 15.85905181 -15.16776599 14.64750215 -13 13 C-12.34 13 -11.68 13 -11 13 C-11.061875 11.948125 -11.12375 10.89625 -11.1875 9.8125 C-10.9909572 5.81612976 -10.39429484 4.13100094 -8 1 C-5.16203273 -0.41898363 -3.15132579 -0.27252635 0 0 Z " fill="#E2E2E1" transform="translate(256,345)"/>
<path d="M0 0 C1.60149426 0.03516028 3.20306287 0.06709101 4.8046875 0.09570312 C8.70497872 0.17235979 12.6016617 0.29286987 16.5 0.4375 C14.4428545 8.0766658 14.4428545 8.0766658 11.3125 11.25 C3.50497949 19.70410606 -1.61216972 29.12700088 -6.5 39.4375 C-9.85179318 38.32023561 -10.51707405 37.48300033 -12.6875 34.8125 C-15.72119244 31.22954956 -18.9458354 28.19724468 -22.515625 25.16015625 C-27.267789 21.03475404 -31.83503723 16.56844787 -35.5 11.4375 C-35.5 10.7775 -35.5 10.1175 -35.5 9.4375 C-34.8709375 9.37433594 -34.241875 9.31117188 -33.59375 9.24609375 C-32.30984375 9.06240234 -32.30984375 9.06240234 -31 8.875 C-30.1646875 8.77058594 -29.329375 8.66617187 -28.46875 8.55859375 C-25.25364829 7.34446981 -24.48969424 6.35938524 -22.25 3.875 C-16.14916604 -1.73594911 -7.74354095 -0.29592642 0 0 Z " fill="#111212" transform="translate(284.5,373.5625)"/>
<path d="M0 0 C2.73828125 1.49609375 2.73828125 1.49609375 5.3125 3.4375 C6.17488281 4.07558594 7.03726563 4.71367187 7.92578125 5.37109375 C10 7 10 7 11 8 C13.37338639 8.15971977 15.72118272 8.2592433 18.09765625 8.31640625 C19.16094398 8.3475779 19.16094398 8.3475779 20.24571228 8.37937927 C22.51787305 8.44494598 24.79015264 8.5037923 27.0625 8.5625 C28.59962183 8.60567849 30.1367315 8.64929255 31.67382812 8.69335938 C35.4490959 8.80063449 39.2244836 8.90188137 43 9 C43 9.33 43 9.66 43 10 C32.77 10 22.54 10 12 10 C12.495 10.99 12.495 10.99 13 12 C30.82 12.33 48.64 12.66 67 13 C67 13.33 67 13.66 67 14 C59.38735192 14.20416443 51.77541873 14.34348874 44.16064453 14.43945312 C41.57476419 14.47948923 38.9890627 14.53393661 36.40380859 14.60351562 C10.42447379 15.2848094 10.42447379 15.2848094 1.72949219 7.83007812 C1.15875977 7.22615234 0.58802734 6.62222656 0 6 C-1.06645115 4.70366379 -1.06645115 4.70366379 -3.5625 4.9375 C-4.366875 4.958125 -5.17125 4.97875 -6 5 C-6.33 6.98 -6.66 8.96 -7 11 C-6.01 11.33 -5.02 11.66 -4 12 C-4 12.33 -4 12.66 -4 13 C-5.98 13.66 -7.96 14.32 -10 15 C-10.20970559 19.14093698 -10.20970559 19.14093698 -9 23 C-6.67843403 23.40729228 -4.3431213 23.74438677 -2 24 C-2.495 24.556875 -2.99 25.11375 -3.5 25.6875 C-5.24754367 28.38162983 -5.26218749 29.85375007 -5 33 C-4.236875 33 -3.47375 33 -2.6875 33 C-0.79166667 33 1.10416667 33 3 33 C2.34 34.65 1.68 36.3 1 38 C-1.64 38 -4.28 38 -7 38 C-6.34 39.32 -5.68 40.64 -5 42 C-5.66 42 -6.32 42 -7 42 C-6.505 45.465 -6.505 45.465 -6 49 C-9 47 -9 47 -9.76953125 43.5546875 C-10.6470058 39.76593975 -10.6470058 39.76593975 -14.01171875 38.2578125 C-15.22472656 37.88398438 -16.43773437 37.51015625 -17.6875 37.125 C-18.88761719 36.73570312 -20.08773437 36.34640625 -21.32421875 35.9453125 C-24.88172302 35.03041767 -28.36429327 34.49335385 -32 34 C-34.4375 32.9375 -34.4375 32.9375 -36 32 C-36.4021875 32.9590625 -36.4021875 32.9590625 -36.8125 33.9375 C-38 36 -38 36 -41 37 C-41 38.98 -41 40.96 -41 43 C-41.33 43 -41.66 43 -42 43 C-42.39348458 38.98645732 -42.34629226 36.62598986 -40.375 33.0625 C-34.46564477 29.45122736 -27.6518579 30.04302705 -20.98486328 31.41455078 C-16.92615078 32.4142094 -12.95540295 33.65347985 -9 35 C-9 32.03 -9 29.06 -9 26 C-9.763125 25.9175 -10.52625 25.835 -11.3125 25.75 C-14 25 -14 25 -15.875 23.25 C-17 21 -17 21 -16.875 18.4375 C-15.94940321 15.85905181 -15.16776599 14.64750215 -13 13 C-12.34 13 -11.68 13 -11 13 C-11.061875 11.948125 -11.12375 10.89625 -11.1875 9.8125 C-10.9909572 5.81612976 -10.39429484 4.13100094 -8 1 C-5.16203273 -0.41898363 -3.15132579 -0.27252635 0 0 Z " fill="#D4D4D3" transform="translate(256,345)"/>
<path d="M0 0 C3.49348372 3.59052494 4.84987115 6.37860842 5.3125 11.375 C4.93716082 15.72893454 4.14363928 17.01757299 1 20 C-2.24736883 22.25839741 -4.93443406 24 -9 24 C-9 24.66 -9 25.32 -9 26 C-14.36821459 26.27296006 -17.61925771 26.43355477 -22 23 C-23.7041054 21.37163262 -25.38025441 19.71230248 -27 18 C-25.73113676 14.19341028 -24.46505212 13.82158056 -21.0625 11.8125 C-16.05932218 8.76765316 -11.67892522 5.37256454 -7.2890625 1.50390625 C-4.57748814 -0.27758885 -3.18388077 -0.49715082 0 0 Z " fill="#F3F3F3" transform="translate(444,493)"/>
<path d="M0 0 C2.78554031 2.87839166 3.21824066 5.57076966 3.375 9.4375 C3.18995104 14.49270124 1.79496812 18.07207128 -1.6875 21.8125 C-5.21417665 23.62349612 -8.01823455 23.87359475 -12 24 C-13.7421875 22.8984375 -13.7421875 22.8984375 -15 21 C-15.51544782 15.77491246 -15.27654237 10.25621443 -12.65625 5.625 C-8.85395665 1.15171371 -6.08156289 -0.74468117 0 0 Z " fill="#070707" transform="translate(460,327)"/>
<path d="M0 0 C0.33 0 0.66 0 1 0 C1.33 4.95 1.66 9.9 2 15 C3.7325 15.4125 5.465 15.825 7.25 16.25 C11.62911938 17.29264747 14.23957846 18.35391628 17 22 C17.49609375 24.4375 17.49609375 24.4375 17.4375 27 C17.43621094 27.845625 17.43492187 28.69125 17.43359375 29.5625 C16.89151133 32.60988224 16.3177325 33.92300957 14 36 C5.417208 37.39959198 -2.47986528 36.3710783 -10 32 C-11.175625 31.4225 -12.35125 30.845 -13.5625 30.25 C-14.366875 29.8375 -15.17125 29.425 -16 29 C-16 27.68 -16 26.36 -16 25 C-15.34 25 -14.68 25 -14 25 C-14 22.03 -14 19.06 -14 16 C-13.67 16 -13.34 16 -13 16 C-12.90203125 16.68707031 -12.8040625 17.37414062 -12.703125 18.08203125 C-12.47882813 19.43361328 -12.47882813 19.43361328 -12.25 20.8125 C-12.11078125 21.70582031 -11.9715625 22.59914063 -11.828125 23.51953125 C-10.75481167 26.73440845 -10.0407826 27.4796087 -7 29 C-3.93396253 29.63187745 -0.86660809 29.92210134 2.25 30.1875 C3.09046875 30.26935547 3.9309375 30.35121094 4.796875 30.43554688 C6.86350783 30.63516482 8.93164248 30.81912511 11 31 C11 28.36 11 25.72 11 23 C10.34 22.67 9.68 22.34 9 22 C9 21.34 9 20.68 9 20 C7.948125 19.87625 6.89625 19.7525 5.8125 19.625 C2.54041229 19.08859218 -0.00536076 18.36119965 -3 17 C-3 14.69 -3 12.38 -3 10 C-2.67 10 -2.34 10 -2 10 C-2 11.98 -2 13.96 -2 16 C-1.34 16 -0.68 16 0 16 C0 10.72 0 5.44 0 0 Z " fill="#D4D5D5" transform="translate(381,546)"/>
<path d="M0 0 C2.73828125 1.49609375 2.73828125 1.49609375 5.3125 3.4375 C6.17488281 4.07558594 7.03726562 4.71367187 7.92578125 5.37109375 C10 7 10 7 11 8 C13.37338639 8.15971977 15.72118272 8.2592433 18.09765625 8.31640625 C19.16094398 8.3475779 19.16094398 8.3475779 20.24571228 8.37937927 C22.51787305 8.44494598 24.79015264 8.5037923 27.0625 8.5625 C28.59962183 8.60567849 30.1367315 8.64929255 31.67382812 8.69335938 C35.4490959 8.80063449 39.2244836 8.90188137 43 9 C43 9.33 43 9.66 43 10 C32.77 10 22.54 10 12 10 C12.33 10.66 12.66 11.32 13 12 C30.82 12.33 48.64 12.66 67 13 C67 13.33 67 13.66 67 14 C59.38735192 14.20416443 51.77541873 14.34348874 44.16064453 14.43945312 C41.57476419 14.47948923 38.9890627 14.53393661 36.40380859 14.60351562 C10.42447379 15.2848094 10.42447379 15.2848094 1.72949219 7.83007812 C1.15875977 7.22615234 0.58802734 6.62222656 0 6 C-1.06645115 4.70366379 -1.06645115 4.70366379 -3.5625 4.9375 C-4.366875 4.958125 -5.17125 4.97875 -6 5 C-6.33 6.98 -6.66 8.96 -7 11 C-6.01 11.33 -5.02 11.66 -4 12 C-4 12.33 -4 12.66 -4 13 C-5.28926992 13.36279456 -6.58153272 13.71496698 -7.875 14.0625 C-8.59429687 14.25972656 -9.31359375 14.45695312 -10.0546875 14.66015625 C-12 15 -12 15 -14 14 C-13.01 13.67 -12.02 13.34 -11 13 C-11.061875 11.948125 -11.12375 10.89625 -11.1875 9.8125 C-10.9909572 5.81612976 -10.39429484 4.13100094 -8 1 C-5.16203273 -0.41898363 -3.15132579 -0.27252635 0 0 Z " fill="#BEBEBE" transform="translate(256,345)"/>
<path d="M0 0 C0.33 1.32 0.66 2.64 1 4 C-4.81475715 7.27591952 -9.24520726 9.7342166 -16 9 C-16.33 7.35 -16.66 5.7 -17 4 C-15 3.33333333 -13 2.66666667 -11 2 C-9.989375 1.62875 -8.97875 1.2575 -7.9375 0.875 C-5.10594023 0.03155666 -2.93038397 -0.17237553 0 0 Z " fill="#282828" transform="translate(467,311)"/>
<path d="M0 0 C-0.33 0.66 -0.66 1.32 -1 2 C-1.66 2 -2.32 2 -3 2 C-3.85387105 5.30567489 -3.85387105 5.30567489 -4 9 C-2.16641665 11.33454661 -2.16641665 11.33454661 0 13 C0 13.66 0 14.32 0 15 C-3.18136394 15.21691118 -5.43969547 15.25066255 -8.375 13.9375 C-10 12 -10 12 -10.5625 8.625 C-9.62179812 2.56269903 -6.29845002 -0.89977857 0 0 Z " fill="#F4F4F3" transform="translate(225,377)"/>
<path d="M0 0 C-0.99 0 -1.98 0 -3 0 C-3 0.66 -3 1.32 -3 2 C-10.26 2 -17.52 2 -25 2 C-24.73728934 6.78745536 -24.47209005 11.57463522 -24.20043945 16.36157227 C-24.10878677 17.99007019 -24.01860745 19.61865172 -23.92993164 21.24731445 C-23.80221617 23.58828907 -23.66920524 25.92891183 -23.53515625 28.26953125 C-23.49656998 28.99775589 -23.4579837 29.72598053 -23.41822815 30.47627258 C-23.16285351 36.3128843 -23.16285351 36.3128843 -20 41 C-21.65 40.67 -23.3 40.34 -25 40 C-26.16652651 27.00156173 -26.10531468 14.04119828 -26 1 C-25.44014404 0.97494385 -24.88028809 0.9498877 -24.3034668 0.92407227 C-21.76458695 0.80796255 -19.22606447 0.6853042 -16.6875 0.5625 C-15.36588867 0.50352539 -15.36588867 0.50352539 -14.01757812 0.44335938 C-12.74624023 0.38051758 -12.74624023 0.38051758 -11.44921875 0.31640625 C-10.66893311 0.27974854 -9.88864746 0.24309082 -9.0847168 0.20532227 C-1.68631964 -0.52334058 -1.68631964 -0.52334058 0 0 Z " fill="#535354" transform="translate(407,521)"/>
<path d="M0 0 C0.66 0 1.32 0 2 0 C2.33 2.64 2.66 5.28 3 8 C3.763125 8 4.52625 8 5.3125 8 C7.20833333 8 9.10416667 8 11 8 C10.34 9.65 9.68 11.3 9 13 C4.545 13.495 4.545 13.495 0 14 C-1.10370043 10.6888987 -0.92673641 8.75251051 -0.5625 5.3125 C-0.46066406 4.31863281 -0.35882813 3.32476562 -0.25390625 2.30078125 C-0.17011719 1.54152344 -0.08632812 0.78226562 0 0 Z " fill="#E1E2E1" transform="translate(248,370)"/>
<path d="M0 0 C0.66 0 1.32 0 2 0 C3.17426264 2.34852528 3.11508173 3.73774065 3.09765625 6.3515625 C3.09443359 7.20234375 3.09121094 8.053125 3.08789062 8.9296875 C3.07951172 9.81914063 3.07113281 10.70859375 3.0625 11.625 C3.05798828 12.5221875 3.05347656 13.419375 3.04882812 14.34375 C3.03702591 16.56256648 3.02056155 18.78125018 3 21 C2.34 21 1.68 21 1 21 C-0.17426264 18.65147472 -0.11508173 17.26225935 -0.09765625 14.6484375 C-0.09443359 13.79765625 -0.09121094 12.946875 -0.08789062 12.0703125 C-0.07951172 11.18085937 -0.07113281 10.29140625 -0.0625 9.375 C-0.05798828 8.4778125 -0.05347656 7.580625 -0.04882812 6.65625 C-0.03702591 4.43743352 -0.02056155 2.21874982 0 0 Z " fill="#F9F9F8" transform="translate(364,550)"/>
<path d="M0 0 C0.66 3.63 1.32 7.26 2 11 C-3 11 -3 11 -4.875 9.3125 C-6 7 -6 7 -5.9375 4.375 C-5 2 -5 2 -3 0.6875 C-1 0 -1 0 0 0 Z " fill="#DADADA" transform="translate(245,359)"/>
<path d="M0 0 C0.33 0.99 0.66 1.98 1 3 C-0.58294782 3.05437607 -2.16644256 3.09296271 -3.75 3.125 C-4.63171875 3.14820313 -5.5134375 3.17140625 -6.421875 3.1953125 C-9.1135858 2.99139502 -10.69904974 2.36551721 -13 1 C-13.268125 1.639375 -13.53625 2.27875 -13.8125 2.9375 C-15 5 -15 5 -18 6 C-18 7.98 -18 9.96 -18 12 C-18.33 12 -18.66 12 -19 12 C-19.39348458 7.98645732 -19.34629226 5.62598986 -17.375 2.0625 C-11.9428683 -1.25713604 -6.20594005 -0.37789892 0 0 Z " fill="#D8D9D8" transform="translate(233,376)"/>
<path d="M0 0 C0.85354942 3.13402498 1.21385572 4.91867395 0 8 C-1.9375 10.75 -1.9375 10.75 -4 13 C-4.66 13 -5.32 13 -6 13 C-7.34882408 13.63474075 -8.6846659 14.29848848 -10 15 C-8.37815499 11.41486894 -6.20743761 8.41007677 -3.875 5.25 C-3.15054687 4.26515625 -2.42609375 3.2803125 -1.6796875 2.265625 C-1.12539063 1.51796875 -0.57109375 0.7703125 0 0 Z " fill="#D8D9D9" transform="translate(471,451)"/>
<path d="M0 0 C0.33 0 0.66 0 1 0 C1.09796875 0.67546875 1.1959375 1.3509375 1.296875 2.046875 C2.18226799 7.32870217 2.73941395 10.44951162 7 14 C7 14.99 7 15.98 7 17 C3.9168649 15.80100302 0.93720508 14.52299523 -2 13 C-2 11.68 -2 10.36 -2 9 C-1.34 9 -0.68 9 0 9 C0 6.03 0 3.06 0 0 Z " fill="#CDCDCC" transform="translate(367,562)"/>
<path d="M0 0 C0.66 1.32 1.32 2.64 2 4 C0.515 3.5359375 0.515 3.5359375 -1 3.0625 C-3.86352158 2.60574196 -4.78578937 2.85768963 -7.24609375 4.4921875 C-9.2428066 6.26467057 -11.15117477 8.07434048 -13 10 C-13 5.69032084 -10.83274712 4.10253255 -8 1 C-5.29120665 -0.35439668 -2.99066732 -0.06501451 0 0 Z " fill="#424444" transform="translate(460,327)"/>
<path d="M0 0 C0.33 0 0.66 0 1 0 C1.33 4.95 1.66 9.9 2 15 C4.64 15.66 7.28 16.32 10 17 C5.67322878 18.08169281 2.43291584 18.1453415 -2 18 C-3 17 -3 17 -3.0625 13.4375 C-3.041875 12.303125 -3.02125 11.16875 -3 10 C-2.67 10 -2.34 10 -2 10 C-2 11.98 -2 13.96 -2 16 C-1.34 16 -0.68 16 0 16 C0 10.72 0 5.44 0 0 Z " fill="#C2C2C2" transform="translate(381,546)"/>
<path d="M0 0 C1.85776765 3.13498292 2.20140476 5.37471432 2 9 C2.99 9.33 3.98 9.66 5 10 C5 10.33 5 10.66 5 11 C3.71073008 11.36279456 2.41846728 11.71496698 1.125 12.0625 C0.40570313 12.25972656 -0.31359375 12.45695312 -1.0546875 12.66015625 C-3 13 -3 13 -5 12 C-4.01 11.67 -3.02 11.34 -2 11 C-2.061875 9.39125 -2.061875 9.39125 -2.125 7.75 C-2.0114175 4.34252515 -1.78726636 2.79260369 0 0 Z " fill="#BCBDBD" transform="translate(247,347)"/>
<path d="M0 0 C0 0.33 0 0.66 0 1 C-0.928125 1.268125 -1.85625 1.53625 -2.8125 1.8125 C-6.55662689 3.13803547 -6.55662689 3.13803547 -9 6 C-9.73041853 9.61023099 -9.73041853 9.61023099 -10 13 C-10.66 12.67 -11.32 12.34 -12 12 C-11.91253716 10.56138706 -11.80434652 9.12402492 -11.6875 7.6875 C-11.62949219 6.88699219 -11.57148438 6.08648437 -11.51171875 5.26171875 C-10.05791642 -1.1638656 -5.47657526 -0.26933977 0 0 Z " fill="#3A3A3A" transform="translate(450,426)"/>
<path d="M0 0 C5.00890086 0.61512818 10.00632136 1.2717552 15 2 C15 2.33 15 2.66 15 3 C4.84682713 4.61050328 4.84682713 4.61050328 1.3125 2.0625 C0.879375 1.381875 0.44625 0.70125 0 0 Z " fill="#F2F1EF" transform="translate(372,576)"/>
<path d="M0 0 C0.33 0.66 0.66 1.32 1 2 C0.57847656 2.45890625 0.15695312 2.9178125 -0.27734375 3.390625 C-1.09912109 4.31101562 -1.09912109 4.31101562 -1.9375 5.25 C-2.48277344 5.85328125 -3.02804687 6.4565625 -3.58984375 7.078125 C-5.06212799 9.08467305 -5.57529189 10.57002449 -6 13 C-6.66 12.34 -7.32 11.68 -8 11 C-7.70831244 7.38008264 -6.00384429 5.67636187 -3.4375 3.25 C-2.79683594 2.63640625 -2.15617187 2.0228125 -1.49609375 1.390625 C-1.00238281 0.93171875 -0.50867188 0.4728125 0 0 Z " fill="#CACBCB" transform="translate(456,474)"/>
<path d="M0 0 C0.33 0 0.66 0 1 0 C1 6.27 1 12.54 1 19 C0.34 19 -0.32 19 -1 19 C-1.33 17.02 -1.66 15.04 -2 13 C-1.34 13 -0.68 13 0 13 C0 8.71 0 4.42 0 0 Z " fill="#E5E5E4" transform="translate(366,552)"/>
<path d="M0 0 C-1.32 1.32 -2.64 2.64 -4 4 C-4 3.01 -4 2.02 -4 1 C-4.66 1 -5.32 1 -6 1 C-6 4.63 -6 8.26 -6 12 C-6.66 11.67 -7.32 11.34 -8 11 C-7.67 8.03 -7.34 5.06 -7 2 C-8.32 1.67 -9.64 1.34 -11 1 C-7.32589215 -0.17571451 -3.83070817 -0.07366746 0 0 Z " fill="#CCCDCC" transform="translate(254,369)"/>
<path d="M0 0 C3.3 0.33 6.6 0.66 10 1 C10 1.33 10 1.66 10 2 C8.741875 2.103125 7.48375 2.20625 6.1875 2.3125 C2.86042583 2.69609156 2.86042583 2.69609156 0.125 4.5625 C-0.24625 5.036875 -0.6175 5.51125 -1 6 C-1.66 6 -2.32 6 -3 6 C-2 4 -1 2 0 0 Z " fill="#393A3B" transform="translate(473,455)"/>
<path d="M0 0 C5.94 1.485 5.94 1.485 12 3 C8 4 8 4 5 3 C5 3.66 5 4.32 5 5 C2.69 4.67 0.38 4.34 -2 4 C-1.01 3.67 -0.02 3.34 1 3 C0.67 2.01 0.34 1.02 0 0 Z " fill="#D8D8D7" transform="translate(224,389)"/>
<path d="M0 0 C1.9375 0.375 1.9375 0.375 4 1 C4.33 1.66 4.66 2.32 5 3 C4.4225 3.12375 3.845 3.2475 3.25 3.375 C0.97664233 4.00648824 -0.9253529 4.88858191 -3 6 C-3 6.99 -3 7.98 -3 9 C-3.66 9 -4.32 9 -5 9 C-3.7508258 5.54074837 -2.32472205 2.85306797 0 0 Z " fill="#BFC0C1" transform="translate(308,391)"/>
<path d="M0 0 C3.16115776 1.36983503 3.9927092 1.9890638 6 5 C0.25 5.125 0.25 5.125 -2 4 C-1.34 2.68 -0.68 1.36 0 0 Z " fill="#B2B2B1" transform="translate(481,437)"/>
<path d="M0 0 C0.66 0.33 1.32 0.66 2 1 C0.90344712 2.31886772 -0.20253423 3.62990057 -1.3125 4.9375 C-1.92738281 5.66839844 -2.54226562 6.39929688 -3.17578125 7.15234375 C-5 9 -5 9 -8 10 C-6.34908222 5.70761377 -3.26245434 3.1206085 0 0 Z " fill="#323434" transform="translate(255,255)"/>
<path d="M0 0 C1.32 0.66 2.64 1.32 4 2 C2.625 4 2.625 4 1 6 C0.34 6 -0.32 6 -1 6 C-2.34882408 6.63474075 -3.6846659 7.29848848 -5 8 C-3.62845496 5.04590299 -2.01136276 2.55991624 0 0 Z " fill="#CDCDCD" transform="translate(466,458)"/>
<path d="M0 0 C0.94875 0.04125 1.8975 0.0825 2.875 0.125 C1.699375 0.99125 1.699375 0.99125 0.5 1.875 C-1.92547244 3.95397637 -2.98194417 5.21540333 -4.125 8.125 C-5.125 7.125 -5.125 7.125 -5.3125 4.6875 C-5.02108357 0.70480882 -3.90175738 0.1560703 0 0 Z " fill="#3B3B3C" transform="translate(467.125,410.875)"/>
<path d="M0 0 C0.66 0.33 1.32 0.66 2 1 C0.71937515 2.7074998 -0.61767557 4.37373596 -2 6 C-2.66 6 -3.32 6 -4 6 C-4 7.98 -4 9.96 -4 12 C-4.33 12 -4.66 12 -5 12 C-5.3125 8.8125 -5.3125 8.8125 -5 5 C-2.5 2.0625 -2.5 2.0625 0 0 Z " fill="#B0B1B1" transform="translate(219,376)"/>
<path d="M0 0 C0.66 0.33 1.32 0.66 2 1 C1.34 2.65 0.68 4.3 0 6 C-2.64 6 -5.28 6 -8 6 C-8 5.67 -8 5.34 -8 5 C-6.02 4.67 -4.04 4.34 -2 4 C-2.99 3.34 -3.98 2.68 -5 2 C-2.625 0.9375 -2.625 0.9375 0 0 Z " fill="#C2C3C2" transform="translate(257,377)"/>
<path d="M0 0 C0.66 0.33 1.32 0.66 2 1 C-1.96 4.465 -1.96 4.465 -6 8 C-6 5 -6 5 -4 2 C-2 0.75 -2 0.75 0 0 Z " fill="#2D2D2D" transform="translate(453,329)"/>
<path d="M0 0 C0.33 0.99 0.66 1.98 1 3 C-0.375 4.5 -0.375 4.5 -2 6 C-2.66 6 -3.32 6 -4 6 C-4.99 6.33 -5.98 6.66 -7 7 C-5.66667905 3.00003714 -3.5042173 2.16217663 0 0 Z " fill="#E1E1E1" transform="translate(466,462)"/>
<path d="M0 0 C0.66 0 1.32 0 2 0 C2.05389087 1.95803507 2.09274217 3.91648909 2.125 5.875 C2.14820313 6.96554687 2.17140625 8.05609375 2.1953125 9.1796875 C2 12 2 12 0 14 C-1.10370043 10.6888987 -0.92673641 8.75251051 -0.5625 5.3125 C-0.46066406 4.31863281 -0.35882813 3.32476562 -0.25390625 2.30078125 C-0.17011719 1.54152344 -0.08632812 0.78226562 0 0 Z " fill="#F3F4F2" transform="translate(248,370)"/>
<path d="M0 0 C2.31 0 4.62 0 7 0 C6.38125 0.28875 5.7625 0.5775 5.125 0.875 C2.86674235 1.93720042 2.86674235 1.93720042 1 4 C0.35232207 6.57061311 0.35232207 6.57061311 0 9 C-0.33 9 -0.66 9 -1 9 C-1.125 2.25 -1.125 2.25 0 0 Z " fill="#F3F3F3" transform="translate(248,347)"/>
<path d="M0 0 C0.66 0.33 1.32 0.66 2 1 C1.01 2.98 0.02 4.96 -1 7 C-1.99 6.34 -2.98 5.68 -4 5 C-3 2 -3 2 0 0 Z " fill="#C0C0BF" transform="translate(421,506)"/>
<path d="M0 0 C0.33 0.66 0.66 1.32 1 2 C-2.625 7.875 -2.625 7.875 -6 9 C-4.47291037 5.56404834 -2.40072955 2.88087546 0 0 Z " fill="#484949" transform="translate(535,352)"/>
</svg>
